<svg width="212" height="212" viewBox="0 0 212 212" fill="none" xmlns="http://www.w3.org/2000/svg">
<path d="M212 2.28202C212 0.912809 211.087 0 209.718 0H71.4273C71.1991 0 70.7427 -3.48549e-06 70.5145 0.228199C70.2863 0.456401 70.0581 0.456394 69.8299 0.684597L0.684605 69.8299C0.228201 70.2863 0 70.7427 0 71.4273V209.718C0 209.946 -3.48549e-06 210.403 0.228199 210.631C0.456401 211.087 0.912806 211.544 1.36921 211.772C1.59741 212 2.05382 212 2.28202 212H140.573C141.257 212 141.714 211.772 142.17 211.315L211.315 142.17C211.544 141.942 211.772 141.714 211.772 141.485C212 141.257 212 140.801 212 140.573V2.28202ZM207.436 138.291H73.7094V4.56405H207.436V138.291ZM109.309 207.436L173.89 142.855H189.636L125.055 207.436H109.309ZM91.9655 207.436L156.547 142.855H172.293L107.712 207.436H91.9655ZM74.6222 207.436L139.203 142.855H154.949L90.3681 207.436H74.6222ZM57.2788 207.436L121.86 142.855H137.606L73.0248 207.436H57.2788ZM39.9354 207.436L104.517 142.855H120.263L55.6814 207.436H39.9354ZM22.592 207.436L87.1733 142.855H102.919L38.338 207.436H22.592ZM7.75888 207.436L72.3401 142.855H85.5759L20.9946 207.436H7.75888ZM4.56405 103.832L69.1453 39.2508V54.9968L4.56405 119.578V103.832ZM4.56405 121.175L69.1453 56.5942V72.3401L4.56405 136.921V121.175ZM4.56405 138.519L69.1453 73.9376V89.6835L4.56405 154.265V138.519ZM4.56405 156.09L69.1453 91.5091V107.255L4.56405 171.836V156.09ZM4.56405 173.434L69.1453 108.853V124.598L4.56405 189.18V173.434ZM69.1453 37.6534L4.56405 102.235V86.4887L69.1453 21.9074V37.6534ZM4.56405 190.777L69.1453 126.196V139.432L4.56405 204.013V190.777ZM69.1453 7.75887V20.31L4.56405 84.8913V72.3401L69.1453 7.75887ZM139.432 207.436H126.424L191.005 142.855H204.013L139.432 207.436Z" fill="#E7E7E7"/>
</svg>
