<svg width="207" height="60" viewBox="0 0 207 60" fill="none" xmlns="http://www.w3.org/2000/svg">
<rect width="206.25" height="60" fill="#FDF400"/>
<path d="M18 12.375H35.3136C38.1992 12.375 40.2878 13.035 41.5794 14.355C42.8985 15.6475 43.5581 17.7375 43.5581 20.625V24.75C43.5581 27.6375 42.8985 29.7413 41.5794 31.0613C40.2878 32.3538 38.1992 33 35.3136 33H25.4201V41.25H18V12.375ZM36.138 20.625C36.138 18.975 35.3136 18.15 33.6646 18.15H25.4201V27.225H33.6646C35.3136 27.225 36.138 26.4 36.138 24.75V20.625Z" fill="#242424"/>
<path d="M54.086 41.25H46.0476L56.9716 12.375H65.2162L76.1402 41.25H68.1018L66.2467 36.0938H55.941L54.086 41.25ZM57.7961 30.7313H64.3917L61.0939 21.0375L57.7961 30.7313Z" fill="#242424"/>
<path d="M82.322 12.375H99.6356C102.521 12.375 104.61 13.035 105.901 14.355C107.221 15.6475 107.88 17.7375 107.88 20.625V24.3375C107.88 26.62 107.495 28.3938 106.726 29.6588C105.984 30.9238 104.788 31.7625 103.139 32.175L108.292 41.25H100.254L95.5133 32.5875H89.7421V41.25H82.322V12.375ZM100.46 20.625C100.46 18.975 99.6356 18.15 97.9866 18.15H89.7421V26.8125H97.9866C99.6356 26.8125 100.46 25.9875 100.46 24.3375V20.625Z" fill="#242424"/>
<path d="M130.129 41.25H122.709V18.15H114.052V12.375H138.786V18.15H130.129V41.25Z" fill="#242424"/>
<path d="M158.982 12.375H166.814L173.616 26.4L180.418 12.375H188.25L177.326 33.6188V41.25H169.906V33.6188L158.982 12.375Z" fill="#242424"/>
<rect x="140.625" y="44.6251" width="18.75" height="7.5" fill="#242424"/>
</svg>
